<svg preserveAspectRatio="none" width="100%" height="100%" overflow="visible" style="display: block;" viewBox="0 0 19.9933 19.9933" fill="none" xmlns="http://www.w3.org/2000/svg">
<g id="Icon" clip-path="url(#clip0_0_14)">
<path id="Vector" d="M18.3272 14.0953V16.5944C18.3281 16.8264 18.2806 17.0561 18.1877 17.2687C18.0947 17.4812 17.9584 17.6721 17.7874 17.8289C17.6165 17.9858 17.4146 18.1052 17.1949 18.1795C16.9751 18.2538 16.7422 18.2814 16.5111 18.2605C13.9477 17.982 11.4853 17.1061 9.32188 15.7031C7.30907 14.4241 5.60257 12.7175 4.32355 10.7047C2.91567 8.53148 2.03952 6.05713 1.76607 3.48217C1.74526 3.2518 1.77263 3.01962 1.84646 2.80042C1.92029 2.58121 2.03896 2.37978 2.1949 2.20894C2.35085 2.03811 2.54065 1.90162 2.75224 1.80816C2.96382 1.7147 3.19255 1.66633 3.42385 1.66611H5.92302C6.3273 1.66213 6.71924 1.80529 7.02578 2.06892C7.33232 2.33254 7.53254 2.69863 7.58912 3.09896C7.69461 3.89875 7.89023 4.68404 8.17226 5.43984C8.28434 5.73801 8.3086 6.06206 8.24216 6.3736C8.17572 6.68513 8.02136 6.97109 7.79739 7.19759L6.73941 8.25557C7.92531 10.3412 9.65214 12.068 11.7377 13.2539L12.7957 12.1959C13.0222 11.9719 13.3082 11.8176 13.6197 11.7511C13.9312 11.6847 14.2553 11.709 14.5535 11.821C15.3093 12.1031 16.0946 12.2987 16.8943 12.4042C17.299 12.4613 17.6686 12.6651 17.9328 12.9769C18.197 13.2887 18.3373 13.6867 18.3272 14.0953Z" stroke="var(--stroke-0, #3088F4)" stroke-width="1.66611" stroke-linecap="round" stroke-linejoin="round"/>
</g>
<defs>
<clipPath id="clip0_0_14">
<rect width="19.9933" height="19.9933" fill="white"/>
</clipPath>
</defs>
</svg>
